<svg width="50" height="50" fill="none" xmlns="http://www.w3.org/2000/svg"><path d="M43.73 8.241l4.023-6.678h-8.006l-1.703 2.19c-2.576-1.385-5.406-2.19-8.225-2.19-2.81 0-5.607.801-8.123 2.607l-.03-.001c-1.688 0-3.878 1.343-5.056 2.16a5.253 5.253 0 00-.836.614l-.004.003a4.94 4.94 0 00-.515.55c-1.398 1.748-1.343 4.168-.762 6.234.066.233.14.464.216.693L1.624 22.507v.786l13.33-8.195c.115.3.238.596.37.888l-13.7 9.298v.808l14.026-9.426c.13.26.267.516.41.77L1.624 28.11v.986l14.835-10.98c.051.081.101.166.154.247L1.623 31.004v.785l15.349-12.876c.108.16.216.32.329.478L1.624 34.63v.786l16.03-15.544c.12.16.244.319.368.476L1.624 37.564v.784l16.738-17.571a32.118 32.118 0 002.572 2.768L1.624 39.981v1.088l19.901-16.966c.166.153.333.307.5.456L1.626 43.8v1.088l20.991-19.81.008.006c.157.136.324.264.482.396L1.562 48.438h1.005L23.702 25.97c.117.093.23.193.349.286L6.149 48.438h1.005l17.523-21.716c.189.141.376.284.567.422L10.177 48.439h1.005L25.888 27.6c.226.157.456.31.687.461L13.903 48.438h.89l12.442-19.945a32.828 32.828 0 004.178 2.223L17.07 48.437h.833l14.209-17.413c.187.078.378.142.567.215L20.384 48.437h.832l12.185-16.924.065.024-9.914 16.9h.832l9.81-16.657c.131.042.261.08.392.118l-7.937 16.54h.834l7.842-16.315c.055.015.11.036.164.05.185.049.38.096.577.143l-6.87 16.121h.791l6.832-15.959c.29.056.587.106.89.15l-5.773 15.81h.781l5.802-15.71c3.044.305 6.402-.18 7.806-2.997.705-1.179 1.623-3.208 1.37-5.388 1.93-5.845-.086-11.762-3.965-16.102zm-3.22-5.116h4.48s-1.071 1.333-2.518 2.341c-.429.3-.981.303-1.514.186a20.75 20.75 0 00-1.564-1.11l1.116-1.417zM16.582 15.132a11.807 11.807 0 01-.273-.868l6.29-3.866c.05.08.101.16.155.229.052.067.114.133.173.199l-6.345 4.306zm.612 1.466a17.673 17.673 0 01-.332-.746l6.654-4.473c.12.094.245.184.375.266l-6.697 4.953zm.457.892l-.1-.18 1.96-1.45.02.045-1.88 1.585zm.582.994a25.815 25.815 0 01-.255-.415l1.922-1.612c.064.072.13.142.202.212l-1.87 1.815zm.329.507l2.003-1.941c.122.085.25.162.381.23l-2.07 2.173c-.108-.152-.21-.308-.314-.462zm4.258 4.818c-.154-.138-.31-.276-.46-.418l5.34-4.553a.933.933 0 00-.005.374l-4.875 4.597zm1.025.883c-.146-.12-.289-.244-.434-.366l4.61-4.351c.023.03.043.066.065.095l.047.053-4.288 4.57zm6.11-5.754c-.473-.328-1.017-.556-1.551-.553-.082 0-.142.018-.208.03l3.42-2.916c.022.032.043.069.066.099.15.192.327.38.519.557l-2.245 2.783zm2.858-2.3c.206.137.42.259.643.356l-2.237 3.597a2.014 2.014 0 00-.385-.833 3.86 3.86 0 00-.282-.316l2.261-2.804zm-3.569 4.424c.073.041.146.082.22.117l-1.931 2.73c-.014-.017-.027-.036-.04-.05a3.09 3.09 0 00-.284-.275l2.035-2.522zm-2.708 2.112c-.05-.02-.095-.049-.145-.065l1.39-1.478-1.245 1.543zm-1.799 2.23c-.097-.076-.195-.148-.29-.225l1.177-1.253c.04.078.085.15.135.213l-1.021 1.265zm1.138.848l-.043-.03c-.157-.113-.315-.23-.473-.346l.972-1.204c.15.108.308.197.474.265l-.93 1.315zm1.28.875c-.213-.14-.425-.28-.635-.423l1.24-1.756a.281.281 0 00.042-.06l2.45-3.47c.084.01.168.021.251.021.081 0 .14-.016.208-.028l-3.555 5.716zm6.22 3.139a17.128 17.128 0 01-.498-.18l1.932-2.369c.07.08.143.157.222.233l-1.657 2.316zm1.748.516l-.298-.073 1.22-2.072.09.036-1.012 2.109zm1.471.295a16.892 16.892 0 01-.706-.124l1.025-2.129c.88-.016.685-.916.275-1.438a3.553 3.553 0 00-.244-.275l1.868-3.173c.18.19.383.368.602.527l-2.82 6.612zm1.625.156c-.28-.012-.561-.031-.842-.059l2.702-6.311c.133.062.271.116.408.159l-2.268 6.21zm6.226-2.634c-.993 1.857-3.082 2.544-5.023 2.637-.118.005-.237.002-.354.005l2.255-6.105c1.054-.056.838-1.161.33-1.817-.618-.796-1.678-1.521-2.697-1.526-.986-.005-.972.81-.636 1.473l-1.97 3.357c-.407-.27-.87-.457-1.325-.464-.635-.01-.737.414-.612.852l-2.262 2.794a29.195 29.195 0 01-4.328-2.252l6.437-10.319c.127.02.255.032.381.032 1.31-.007 1-1.348.432-2.083-.677-.874-1.85-1.69-2.975-1.676-.884.011-1.016.626-.838 1.25l-9.486 8.074a25.654 25.654 0 01-2.572-2.936l2.296-2.41c.145.035.291.059.437.058.962-.005.635-1.026.24-1.524-.346-.437-.866-.861-1.424-1.078l3.943-2.917c.245.077.496.12.744.116 1.205-.018.835-1.286.33-1.93-.616-.787-1.68-1.545-2.702-1.52-.739.016-.871.51-.75 1.033l-6.173 3.814c-.274-1.418-.23-2.9.505-4.157 1.07-1.832 3.216-2.445 5.172-2.5 4.718-.13 9.459 2.25 13.25 4.943 3.697 2.627 7.266 6.147 9.084 10.447.822 1.944 1.34 4.37.291 6.33zm2.326-7.23a22.666 22.666 0 00-1.672-2.976c-1.31-1.985-2.961-3.884-4.824-5.611a37.732 37.732 0 00-6.081-4.587c-2.14-1.298-4.347-2.333-6.487-3.03a21.296 21.296 0 00-3.288-.8 12.193 12.193 0 015.4-1.24c6.045 0 12.554 4.266 15.476 10.145.896 1.806 1.896 4.71 1.476 8.099" fill="#041C3F"/></svg>